<svg id="final_svg" viewBox="86.38400268554688 288.28399658203125 925.169921875 510.4219970703125" xmlns="http://www.w3.org/2000/svg" xmlns:xlink="http://www.w3.org/1999/xlink" xml:space="preserve">
      <g id="png_group" transform="translate(369.581, 288.284) scale(1.167)" opacity="1">
      <g height="368.60862000000003" width="367.605" transform="rotate(0)">
                  <style type="text/css">.st0{fill:#F4AA08;}	.st1{fill:#C98306;}	.st2{opacity:0.29;}</style>
          <g id="color_index_1" fill="rgba(244, 170, 8, 1)">
                          <path d="M307.9,179.19c0.93-6.78,1.45-13.69,1.45-20.72c0-83.66-68.06-151.72-151.72-151.72		c-75.38,0-138.07,55.26-149.75,127.4l-0.03,0.04l0.02,0.03c-1.27,7.9-1.96,16-1.96,24.25c0,6.39,0.44,12.68,1.22,18.87l-0.06,0.07		l0.08,0.06c9.38,74.72,73.27,132.72,150.49,132.72c76.57,0,140.04-57.03,150.25-130.84l0.09-0.08L307.9,179.19z M289.08,217.34		c-3.98,8.85-8.82,17.22-14.42,25.01v-14.87L289,217.24L289.08,217.34z M268.8,175.41l-0.89-1.25l-0.1,0.07l-83.59-99.36		l10.46-12.44l104.29,123.96c-1.27,6.44-2.99,12.72-5.09,18.82L268.8,175.41z M207.64,231.81l-44.68-18.06v-17.97l20.33-17.26h-0.08		l0.05-0.01l-3.16-24.34c15.04-5.4,27.42-13.71,35.69-23.95l22.3,26.51l-30.46,21.77V231.81z M21.17,204.58		c-2.19-6.46-3.93-13.12-5.19-19.94L119.31,61.83l11.02,13.01L21.17,204.58z M40.89,242.74c-5.83-8.06-10.85-16.74-14.94-25.93		l14.94,10.67V242.74z M103.22,25.1c5.07-2.08,10.29-3.86,15.63-5.36l28.92,34.37l-9.94,11.81L103.22,25.1z M171.41,72.28h-23.92		l45.07-53.57c6.44,1.61,12.71,3.67,18.78,6.12L171.41,72.28z M176.91,129.68l25.93-14.84l5.39,6.41		c-6.48,8.88-16.8,16.25-29.65,21.26L176.91,129.68z M164.54,123.54l7.15,54.98h-28.95l7.15-54.98l-30.73-17.59l18.71-22.24l0,0		l38.83,0.04l18.64,22.16L164.54,123.54z M111.65,114.87l25.87,14.81l-1.67,12.81c-12.83-5-23.12-12.35-29.6-21.2L111.65,114.87z		 M98.69,130.27c8.27,10.22,20.63,18.51,35.64,23.9l-3.16,24.35l0.05,0.01h-0.07l20.33,17.26v18.39l-43.57,17.61V178.5l-31.1-22.22		L98.69,130.27z M157.73,224.02l44.29,17.9l-20.65,32.88h-47.28l-20.64-32.88L157.73,224.02z M202.18,53.53l10.29-12.23		l88.72,105.45c0.31,3.87,0.52,7.78,0.52,11.73c0,4.27-0.22,8.48-0.59,12.66L202.18,53.53z M297.68,124.75l-77.72-92.37l2.23-2.65		C259.57,48.55,287.67,83.16,297.68,124.75z M179.75,16.1l-24.49,29.11l-23.87-28.37c8.52-1.57,17.28-2.44,26.24-2.44		C165.15,14.4,172.54,14.98,179.75,16.1z M92.4,30.08l1.53,1.81l-75.6,89.86C28.88,81.74,56.26,48.52,92.4,30.08z M13.56,158.47		c0-4.78,0.25-9.51,0.7-14.18l0.04,0.06l87.15-103.59l10.33,12.19L14,169.17C13.74,165.64,13.56,162.08,13.56,158.47z M52.36,256.68		v-35.1l-19.04-13.61l15.74-18.7l19.79,14.14v55.7l15.45,23.31C72.45,275.38,61.71,266.69,52.36,256.68z M104.7,292.43l-24.39-36.78		V197.5l-23.85-17.04l12.94-15.38l27.04,19.32v51.96h0.1l-0.1,0.04l31.3,49.86h59.97l31.31-49.86l-0.1-0.04h0.19V184.4l26.39-18.86		l12.94,15.38l-23.21,16.58v58.14l-24.29,36.63c-16.5,6.6-34.48,10.27-53.31,10.27C138.95,302.54,121.1,298.93,104.7,292.43z		 M231.43,282.15l15.28-23.05v-55.7l19.15-13.68l15.73,18.7l-18.4,13.15v34.81C253.89,266.4,243.21,275.09,231.43,282.15z"></path>
                      </g>
          <g id="color_index_0" fill="rgba(201, 131, 6, 1)">
                          <path d="M301.8,205.63c-1.69,5.16-3.67,10.18-5.88,15.08l1.95,16.14c-4.77,1.4-9.37,3.23-13.84,5.39		c-1.6,2.41-3.28,4.75-5.01,7.05c6.09-3.65,12.55-6.55,19.32-8.6l1.06,8.78c-22.52,9.1-40.57,27.09-49.77,49.56l-8.84-1.08		c1.99-6.48,4.78-12.67,8.25-18.53c-2.3,1.75-4.64,3.45-7.05,5.06c-2.01,4.2-3.72,8.53-5.05,12.99l-14.71-1.8		c-4.69,2.22-9.52,4.2-14.46,5.94L315,314.73L301.8,205.63z M253.58,299.52c8.8-20.74,25.5-37.38,46.3-46.08l1.16,9.58		c-16.15,8.47-29.31,21.57-37.84,37.67L253.58,299.52z M267.26,301.19c7.95-14.41,19.82-26.21,34.27-34.1l1.26,10.44		c-9.9,6.58-18.42,15.07-25.05,24.94L267.26,301.19z M282.07,303c5.8-8.23,12.99-15.39,21.25-21.16l1.38,11.37		c-4.07,3.4-7.84,7.12-11.25,11.17L282.07,303z M305.25,297.79l0.99,8.16l-8.17-1C300.32,302.43,302.71,300.03,305.25,297.79z		 M0.27,0l13.41,109.83l0.3-0.04c1.66-4.88,3.53-9.65,5.65-14.29l-1.91-15.63c4.62-1.31,9.1-3.01,13.44-5.03		c1.52-2.3,3.1-4.56,4.74-6.77c-5.9,3.38-12.13,6.06-18.64,7.96l-1.06-8.69c11.66-4.58,22.15-11.52,30.87-20.24		c8.82-8.82,15.8-19.45,20.38-31.26l8.67,1.05c-1.94,6.8-4.75,13.29-8.3,19.42c2.24-1.65,4.5-3.26,6.83-4.79		c2.15-4.57,3.96-9.29,5.32-14.17l17.06,2.06c4.86-2.13,9.86-4,14.96-5.61l0.03-0.28L0.27,0z M9.05,8.77l10.67,1.29		c-2.88,3.37-6.01,6.51-9.36,9.4L9.05,8.77z M10.9,23.93c2.39-1.94,4.71-3.96,6.88-6.13c2.27-2.27,4.37-4.7,6.39-7.2l11.29,1.37		c-6.17,9.16-14.05,17.06-23.18,23.27L10.9,23.93z M12.8,39.47c5.32-3.46,10.28-7.44,14.75-11.91c4.57-4.57,8.61-9.64,12.12-15.1		L50,13.72c-8.09,15.4-20.59,27.95-35.94,36.11L12.8,39.47z M15.72,63.4l-1.16-9.5c8.47-4.33,16.14-9.91,22.77-16.54		c6.73-6.73,12.39-14.52,16.74-23.14l9.47,1.15C54.83,37.13,37.44,54.58,15.72,63.4z M205.13,14.39l0,0.01		c5.13,1.7,10.14,3.66,15.02,5.88l15.53-1.88c1.37,4.58,3.13,9.02,5.21,13.32c2.35,1.55,4.67,3.15,6.93,4.83		c-3.49-5.88-6.29-12.1-8.29-18.61l8.84-1.07c9.32,22.76,27.72,40.93,50.65,49.92l-1.06,8.69c-6.72-1.95-13.14-4.75-19.21-8.28		c1.71,2.26,3.35,4.56,4.94,6.92c4.45,2.1,9.05,3.86,13.8,5.21l-1.95,15.98c2.22,4.82,4.18,9.77,5.89,14.85L314.73,1.13		L205.13,14.39z M299.49,62.86c-21.21-8.6-38.25-25.43-47.17-46.47l9.62-1.16c8.69,16.39,22.17,29.69,38.71,38.13L299.49,62.86z		 M301.14,49.29C286.3,41.41,274.11,29.43,266,14.73l10.49-1.27c6.82,10.15,15.65,18.81,25.92,25.47L301.14,49.29z M302.92,34.7		c-8.62-5.86-16.1-13.25-22.11-21.76l11.39-1.38c3.65,4.32,7.71,8.26,12.1,11.83L302.92,34.7z M296.83,11l9.12-1.1l-1.1,9.03		C301.99,16.48,299.34,13.81,296.83,11z M94.9,296.57l-16.21,1.98c-1.33-4.79-3.1-9.42-5.19-13.91c-2.33-1.56-4.62-3.19-6.86-4.88		c3.51,6.09,6.28,12.52,8.21,19.26l-8.67,1.06c-8.99-23.2-27.34-41.81-50.38-51.14l1.06-8.79c6.55,1.98,12.81,4.77,18.73,8.26		c-1.67-2.27-3.3-4.56-4.85-6.92c-4.33-2.07-8.8-3.83-13.41-5.19l1.92-15.85c-2.21-4.92-4.19-9.97-5.87-15.15L0,315.86l109.81-13.4		C104.71,300.76,99.75,298.78,94.9,296.57z M8.77,307.08l1.19-9.82c3.03,2.69,5.9,5.55,8.52,8.63L8.77,307.08z M22.92,305.36		c-3.73-4.62-7.86-8.88-12.41-12.68l1.38-11.37c8.76,6.12,16.35,13.8,22.32,22.67L22.92,305.36z M38.41,303.47		c-6.76-10.52-15.6-19.56-26-26.48l1.26-10.44c14.95,8.17,27.13,20.55,35.07,35.65L38.41,303.47z M52.8,301.71		c-8.49-16.81-21.99-30.48-38.64-39.22l1.16-9.59c21.31,8.93,38.35,26.18,46.95,47.65L52.8,301.71z"></path>
                      </g>
          <g>
                          <path class="st2" d="M111.65,114.88l7.54-8.91l9.09,5.14l-8.12,8.63L111.65,114.88z M101.18,133.19c1.11,1.24,3.22,3.26,3.25,3.27		l7.86-8.35c-2.24-1.97-4.7-5.05-6.05-6.82l-7.56,8.98C98.68,130.28,100.43,132.35,101.18,133.19z M74.23,168.54l7.95-8.42		l-5.37-3.84l-7.43,8.79C70.46,165.87,72.76,167.44,74.23,168.54z M52.47,191.71l7.93-8.43c-1.29-1.19-2.72-1.21-3.9-2.5l-7.44,8.49		L52.47,191.71z M33.32,207.97l-7.4,8.82l1.77,1.26l7.93-8.43C34.83,209.03,33.43,208.05,33.32,207.97z M101.45,40.76l-7.52-8.87		l-3.79,4.5l6.99,9.52C98.1,44.77,100.82,41.48,101.45,40.76z M119.31,61.83l-7.53-8.88c-0.56,0.61-3.96,4.75-5.06,6.01l6.99,9.51		C115.67,66.21,117.35,64.13,119.31,61.83z M130.34,74.83c0,0-4.42,5.25-6.38,7.58l6.99,9.51l6.92-8.22L130.34,74.83z M225.05,56.24		l9.03-7.09l-14.11-16.77l-7.5,8.91C212.47,41.29,221.04,51.47,225.05,56.24z M203.63,73.07l9.03-7.09c0,0-6.92-8.22-10.48-12.46		l-7.5,8.91C194.88,62.66,203.63,73.07,203.63,73.07z M184.22,74.87l-7.47,8.88l5.26,6.31l9.03-7.09		C188.9,80.44,184.6,75.41,184.22,74.87z M151.48,202.78l5.74,6.45l5.74-6.73v-6.73l-5.74,4.87l-5.74-4.87V202.78z M178.58,142.51		l1.52,11.68c0,0,5.89-2.03,10.93-4.67l-4.89-10.37C181.74,141.35,178.58,142.51,178.58,142.51z"></path>
                      </g>
              </g>
    </g>
    <g id="text_group" transform="rotate(0)" opacity="1">
      <g id="text_layer_1_0" fill="rgba(255, 255, 255, 1)" transform="translate(88.234, 661.995)">
                  <path d="M-1.85 66.09L-1.85 66.77L12.79 66.77L12.79 66.09L12.25 66.09C11.22 66.09 10.47 65.75 9.99 65.13C8.96 63.90 9.10 62.94 9.58 61.78L13.14 53.36L29.14 53.36L32.50 61.78C32.98 62.94 33.25 66.09 29.90 66.09L29.28 66.09L29.28 66.77L51.11 66.77L51.11 66.09L50.49 66.09C48.30 66.09 46.04 64.79 44.67 62.12L24.36 17.51L23.74 17.51C23.60 18.95 22.44 21.96 20.32 26.48L4.52 62.26C3.15 64.79 0.89 66.09-1.23 66.09ZM14.30 50.49L21.35 33.66L27.98 50.49ZM51.79 26.41L52.68 26.41C54.59 26.41 56.24 27.98 56.24 29.97L56.24 62.53C56.24 64.51 54.59 66.09 52.61 66.09L51.79 66.09L51.79 66.77L70.60 66.77L70.60 66.09L69.85 66.09C67.94 66.09 66.16 64.65 66.16 62.46L66.16 28.53L68.35 28.53C68.96 28.53 69.58 28.53 70.06 28.60C73.89 28.80 77.17 31.27 77.31 35.37C77.38 37.15 77.44 37.90 77.10 39.27C76.21 43.78 73.89 46.04 69.99 46.11L68.28 46.11L68.28 46.66C69.65 46.86 71.29 48.16 72.38 50.90C73.00 53.16 74.50 56.30 76.97 60.20C80.18 65.34 83.53 66.77 91.13 66.77L96.87 66.77L96.87 66.09C95.44 66.09 94.27 65.75 93.32 65.13C91.33 63.83 87.78 58.97 84.83 53.77C83.40 51.38 80.73 48.78 78.27 47.96C84.56 47.07 87.78 42.21 87.78 36.94C87.78 28.25 80.18 25.72 72.79 25.72L51.79 25.72ZM93.39 66.09L93.39 66.77L107.07 66.77L107.07 66.09L106.52 66.09C103.51 66.09 103.72 63.35 104.13 62.39L106.86 56.03L121.37 56.03L124.03 62.33C124.38 63.35 124.72 66.09 121.71 66.09L121.16 66.09L121.16 66.77L141.27 66.77L141.27 66.09L140.73 66.09C138.74 66.09 136.55 64.92 135.39 62.26L117.06 23.81L116.44 23.81C116.37 24.83 115.28 27.64 113.29 32.15L99.13 62.53C97.97 64.92 95.85 66.09 93.93 66.09ZM108.03 53.36L114.18 39.06L120.20 53.36ZM141.69 66.77L161.53 66.77C169.19 66.77 178.70 64.58 178.70 55.07C178.70 49.05 174.05 44.88 167.96 44.40C172.61 44.06 175.48 40.36 175.48 35.92C175.48 29.14 170.35 25.72 160.02 25.72L141.69 25.72L141.69 26.41L142.44 26.41C144.56 26.41 146.13 27.91 146.20 30.03L146.20 62.46C146.13 64.58 144.56 66.09 142.44 66.09L141.69 66.09ZM155.92 28.39L157.83 28.39C162.83 28.39 165.29 31.13 165.29 36.60C165.29 42.01 162.28 44.47 157.90 44.47L157.90 45.08L158.04 45.08C164.06 45.08 167.61 48.57 167.61 54.46C167.61 61.03 163.92 64.04 158.65 64.04L155.92 64.04ZM202.30 66.77L202.30 66.09L201.48 66.09C199.36 66.09 197.58 64.58 197.51 62.46L197.51 29.97C197.58 27.98 199.36 26.41 201.48 26.41L202.30 26.41L202.30 25.72L182.87 25.72L182.87 26.41L183.69 26.41C185.88 26.41 187.66 28.05 187.66 30.03L187.66 62.46C187.66 64.45 185.88 66.09 183.69 66.09L182.87 66.09L182.87 66.77ZM202.85 66.09L202.85 66.77L216.53 66.77L216.53 66.09L215.98 66.09C212.97 66.09 213.18 63.35 213.59 62.39L216.33 56.03L230.83 56.03L233.50 62.33C233.84 63.35 234.18 66.09 231.17 66.09L230.62 66.09L230.62 66.77L250.74 66.77L250.74 66.09L250.19 66.09C248.21 66.09 246.02 64.92 244.85 62.26L226.52 23.81L225.90 23.81C225.83 24.83 224.74 27.64 222.76 32.15L208.59 62.53C207.43 64.92 205.31 66.09 203.39 66.09ZM217.49 53.36L223.65 39.06L229.67 53.36ZM287.54 66.77L287.54 66.09L286.72 66.09C284.60 66.09 282.82 64.58 282.76 62.46L282.76 29.97C282.82 27.98 284.60 26.41 286.72 26.41L287.54 26.41L287.54 25.72L268.11 25.72L268.11 26.41L268.94 26.41C271.12 26.41 272.90 28.05 272.90 30.03L272.90 62.46C272.90 64.45 271.12 66.09 268.94 66.09L268.11 66.09L268.11 66.77ZM310.46 66.77L310.46 66.09L309.30 66.09C307.18 66.09 305.61 64.58 305.54 62.60L305.54 39.95L336.94 67.66L337.55 67.66L337.42 66.70C337.08 64.86 336.87 62.53 336.87 59.73L336.87 29.83C336.94 27.84 338.51 26.41 340.63 26.41L341.80 26.41L341.80 25.72L322.57 25.72L322.57 26.41L323.74 26.41C325.86 26.41 327.43 27.91 327.43 29.90L327.43 52.41L296.10 24.83L295.48 24.77L295.62 25.72C295.96 27.50 296.16 29.76 296.16 32.50L296.16 62.60C296.16 64.58 294.52 66.09 292.40 66.09L291.31 66.09L291.31 66.77ZM344.53 35.44L344.53 34.82C344.53 30.92 346.79 28.46 350.83 28.39L358.69 28.39L358.69 62.46C358.69 64.58 357.05 66.09 354.93 66.09L354.25 66.09L354.25 66.77L373.13 66.77L373.13 66.09L372.38 66.09C370.39 66.09 368.68 64.51 368.61 62.53L368.61 28.39L376.55 28.39C380.45 28.46 382.78 30.92 382.78 34.82L382.78 35.44L383.46 35.44L383.46 24.63C383.12 24.83 380.31 25.66 376.28 25.66L351.03 25.66C348.64 25.66 345.15 25.11 343.85 24.63L343.85 35.44ZM387.09 66.77L419.31 66.77L421.91 54.18L421.29 54.18C419.45 60.41 415.41 63.97 409.73 64.04L401.52 64.04L401.52 47.82L409.39 47.82C412.47 47.82 414.52 50.15 414.52 53.23L414.52 53.70L415.20 53.70L415.20 39.20L414.52 39.20L414.52 39.68C414.52 42.76 412.40 45.02 409.32 45.08L401.52 45.08L401.52 28.46L411.37 28.46C415.27 28.53 417.60 30.92 417.60 34.96L417.60 35.58L418.28 35.58L418.28 24.70C417.12 25.18 413.63 25.72 411.17 25.72L387.09 25.72L387.09 26.41L387.91 26.41C390.03 26.41 391.60 27.98 391.67 29.97L391.67 62.53C391.60 64.51 390.03 66.09 387.91 66.09L387.09 66.09ZM425.81 26.41L426.70 26.41C428.61 26.41 430.26 27.98 430.26 29.97L430.26 62.53C430.26 64.51 428.61 66.09 426.63 66.09L425.81 66.09L425.81 66.77L444.62 66.77L444.62 66.09L443.87 66.09C441.95 66.09 440.18 64.65 440.18 62.46L440.18 28.53L442.36 28.53C442.98 28.53 443.60 28.53 444.08 28.60C447.91 28.80 451.19 31.27 451.33 35.37C451.40 37.15 451.46 37.90 451.12 39.27C450.23 43.78 447.91 46.04 444.01 46.11L442.30 46.11L442.30 46.66C443.66 46.86 445.31 48.16 446.40 50.90C447.02 53.16 448.52 56.30 450.99 60.20C454.20 65.34 457.55 66.77 465.15 66.77L470.89 66.77L470.89 66.09C469.46 66.09 468.29 65.75 467.34 65.13C465.35 63.83 461.79 58.97 458.85 53.77C457.42 51.38 454.75 48.78 452.28 47.96C458.58 47.07 461.79 42.21 461.79 36.94C461.79 28.25 454.20 25.72 446.81 25.72L425.81 25.72ZM488.54 66.77L488.54 66.09L487.38 66.09C485.26 66.09 483.69 64.58 483.62 62.60L483.62 39.95L515.02 67.66L515.64 67.66L515.50 66.70C515.16 64.86 514.95 62.53 514.95 59.73L514.95 29.83C515.02 27.84 516.59 26.41 518.71 26.41L519.88 26.41L519.88 25.72L500.65 25.72L500.65 26.41L501.82 26.41C503.94 26.41 505.51 27.91 505.51 29.90L505.51 52.41L474.18 24.83L473.56 24.77L473.70 25.72C474.04 27.50 474.25 29.76 474.25 32.50L474.25 62.60C474.25 64.58 472.60 66.09 470.48 66.09L469.39 66.09L469.39 66.77ZM519.47 66.09L519.47 66.77L533.15 66.77L533.15 66.09L532.60 66.09C529.59 66.09 529.80 63.35 530.21 62.39L532.95 56.03L547.45 56.03L550.12 62.33C550.46 63.35 550.80 66.09 547.79 66.09L547.24 66.09L547.24 66.77L567.36 66.77L567.36 66.09L566.81 66.09C564.83 66.09 562.64 64.92 561.47 62.26L543.14 23.81L542.52 23.81C542.45 24.83 541.36 27.64 539.38 32.15L525.21 62.53C524.05 64.92 521.93 66.09 520.01 66.09ZM534.11 53.36L540.27 39.06L546.29 53.36ZM562.71 35.44L562.71 34.82C562.71 30.92 564.96 28.46 569.00 28.39L576.87 28.39L576.87 62.46C576.87 64.58 575.22 66.09 573.10 66.09L572.42 66.09L572.42 66.77L591.30 66.77L591.30 66.09L590.55 66.09C588.57 66.09 586.86 64.51 586.79 62.53L586.79 28.39L594.72 28.39C598.62 28.46 600.95 30.92 600.95 34.82L600.95 35.44L601.63 35.44L601.63 24.63C601.29 24.83 598.49 25.66 594.45 25.66L569.20 25.66C566.81 25.66 563.32 25.11 562.02 24.63L562.02 35.44ZM624.69 66.77L624.69 66.09L623.87 66.09C621.75 66.09 619.97 64.58 619.90 62.46L619.90 29.97C619.97 27.98 621.75 26.41 623.87 26.41L624.69 26.41L624.69 25.72L605.26 25.72L605.26 26.41L606.08 26.41C608.27 26.41 610.05 28.05 610.05 30.03L610.05 62.46C610.05 64.45 608.27 66.09 606.08 66.09L605.26 66.09L605.26 66.77ZM628.79 46.25C628.79 52.82 630.98 58.02 635.43 61.85C639.88 65.75 645.69 67.66 653.01 67.66C660.33 67.66 666.15 65.75 670.59 61.85C675.04 58.02 677.23 52.82 677.23 46.25C677.23 39.68 675.04 34.48 670.59 30.58C666.15 26.75 660.33 24.83 653.01 24.83C645.69 24.83 639.81 26.75 635.43 30.58C630.98 34.48 628.79 39.68 628.79 46.25ZM639.26 46.25C639.26 40.50 640.49 35.92 643.02 32.57C645.49 29.21 648.84 27.57 653.01 27.57C657.18 27.57 660.47 29.21 663.00 32.57C665.46 35.92 666.69 40.50 666.69 46.25C666.69 51.99 665.46 56.51 663.00 59.86C660.47 63.21 657.18 64.92 653.01 64.92C648.84 64.92 645.49 63.21 643.02 59.86C640.49 56.51 639.26 51.99 639.26 46.25ZM699.46 66.77L699.46 66.09L698.30 66.09C696.18 66.09 694.61 64.58 694.54 62.60L694.54 39.95L725.94 67.66L726.56 67.66L726.42 66.70C726.08 64.86 725.87 62.53 725.87 59.73L725.87 29.83C725.94 27.84 727.51 26.41 729.64 26.41L730.80 26.41L730.80 25.72L711.57 25.72L711.57 26.41L712.74 26.41C714.86 26.41 716.43 27.91 716.43 29.90L716.43 52.41L685.10 24.83L684.48 24.77L684.62 25.72C684.96 27.50 685.17 29.76 685.17 32.50L685.17 62.60C685.17 64.58 683.52 66.09 681.40 66.09L680.31 66.09L680.31 66.77ZM730.39 66.09L730.39 66.77L744.07 66.77L744.07 66.09L743.52 66.09C740.51 66.09 740.72 63.35 741.13 62.39L743.87 56.03L758.37 56.03L761.04 62.33C761.38 63.35 761.72 66.09 758.71 66.09L758.16 66.09L758.16 66.77L778.28 66.77L778.28 66.09L777.73 66.09C775.75 66.09 773.56 64.92 772.39 62.26L754.06 23.81L753.44 23.81C753.37 24.83 752.28 27.64 750.30 32.15L736.13 62.53C734.97 64.92 732.85 66.09 730.94 66.09ZM745.03 53.36L751.19 39.06L757.21 53.36ZM778.55 25.72L778.55 26.41L779.37 26.41C781.36 26.41 783.07 28.05 783.07 30.03L783.07 62.53C783.07 64.51 781.49 66.09 779.37 66.09L778.55 66.09L778.55 66.77L810.77 66.77L813.44 54.18L812.69 54.18C810.84 60.41 806.87 63.97 801.20 64.04L792.99 64.04L792.99 30.03C792.99 27.91 794.63 26.41 796.75 26.41L797.57 26.41L797.57 25.72ZM833.69 66.77L854.49 66.77L854.42 66.09L853.60 66.09C851.21 66.09 849.22 64.17 849.22 61.78L849.22 44.61L858.39 44.61C861.67 44.67 864.07 47.14 864.07 50.49L864.07 51.04L864.75 51.04L864.75 35.23L864.07 35.23L864.07 35.85C864.07 39.20 861.61 41.66 858.25 41.73L849.22 41.73L849.22 21.82L860.92 21.82C864.96 21.89 867.42 24.49 867.42 28.53L867.42 29.21L868.11 29.21L868.11 17.65C866.74 18.20 862.70 18.88 859.90 18.88L833.69 18.88L833.69 19.57L834.58 19.57C836.91 19.57 838.96 21.28 838.96 23.67L838.96 61.78C838.89 64.17 836.98 66.09 834.58 66.09L833.69 66.09ZM869.95 66.09L869.95 66.77L886.85 66.77L886.85 66.09L885.96 66.09C885.00 66.09 884.18 65.61 883.57 64.65C883.02 63.76 883.02 62.74 883.57 61.85L893.62 47.00L903.20 61.91C903.75 62.80 903.75 63.69 903.20 64.72C902.59 65.61 901.83 66.09 900.88 66.09L899.99 66.09L899.99 66.77L923.32 66.77L923.32 66.09L922.36 66.09C919.69 66.09 917.02 64.38 915.45 62.12L901.70 40.84L913.33 23.53C914.97 21.28 917.43 19.57 920.17 19.57L921.13 19.57L921.13 18.88L904.30 18.88L904.30 19.57L905.19 19.57C906.14 19.57 906.90 20.05 907.51 21.00C908.13 21.89 908.13 22.92 907.58 23.81L899.17 36.94L890.61 23.74C890.13 22.92 890.13 21.96 890.68 20.93C891.30 20.05 892.05 19.57 893.01 19.57L893.90 19.57L893.90 18.88L870.64 18.88L870.64 19.57L871.59 19.57C874.33 19.57 876.93 21.35 878.50 23.60L891.16 43.17L877.68 62.26C875.70 64.79 873.44 66.09 870.91 66.09Z"></path>
              </g>
    </g>
    <g id="tagline_group" transform="rotate(0)" opacity="1">
      <g id="text_layer_2_0" fill="rgba(255, 255, 255, 1)" transform="translate(447.401, 763.216)">
                  <path d="M6.59 35.27L0.79 18.61L0.79 18.53L3.11 18.53L6.55 28.45Q6.70 28.86 6.85 29.39Q7.00 29.91 7.19 30.55L7.19 30.55Q7.34 30.14 7.52 29.65Q7.71 29.16 8.01 28.53L8.01 28.53L12.17 19.43L12.73 19.43L16.85 28.49Q17.11 28.98 17.31 29.50Q17.52 30.02 17.71 30.59L17.71 30.59Q17.93 29.84 18.10 29.28Q18.27 28.71 18.38 28.41L18.38 28.41L21.79 18.53L24.11 18.53L24.11 18.61L18.31 35.27L17.60 35.27L12.47 23.81L7.26 35.27L6.59 35.27ZM31.48 35.27L25.68 18.61L25.68 18.53L28.00 18.53L31.45 28.45Q31.60 28.86 31.75 29.39Q31.90 29.91 32.08 30.55L32.08 30.55Q32.23 30.14 32.42 29.65Q32.61 29.16 32.91 28.53L32.91 28.53L37.06 19.43L37.62 19.43L41.74 28.49Q42.00 28.98 42.21 29.50Q42.42 30.02 42.60 30.59L42.60 30.59Q42.83 29.84 43.00 29.28Q43.16 28.71 43.28 28.41L43.28 28.41L46.68 18.53L49.01 18.53L49.01 18.61L43.20 35.27L42.49 35.27L37.36 23.81L32.16 35.27L31.48 35.27ZM56.38 35.27L50.58 18.61L50.58 18.53L52.90 18.53L56.34 28.45Q56.49 28.86 56.64 29.39Q56.79 29.91 56.98 30.55L56.98 30.55Q57.13 30.14 57.32 29.65Q57.50 29.16 57.80 28.53L57.80 28.53L61.96 19.43L62.52 19.43L66.64 28.49Q66.90 28.98 67.11 29.50Q67.31 30.02 67.50 30.59L67.50 30.59Q67.72 29.84 67.89 29.28Q68.06 28.71 68.17 28.41L68.17 28.41L71.58 18.53L73.90 18.53L73.90 18.61L68.10 35.27L67.39 35.27L62.26 23.81L57.05 35.27L56.38 35.27ZM77.38 35.45L77.38 35.45Q76.67 35.45 76.15 35.00Q75.62 34.55 75.62 33.73L75.62 33.73Q75.62 32.87 76.13 32.42Q76.63 31.97 77.38 31.97L77.38 31.97Q78.09 31.97 78.62 32.42Q79.14 32.87 79.14 33.73L79.14 33.73Q79.14 34.55 78.62 35.00Q78.09 35.45 77.38 35.45ZM91.08 18.34L91.08 18.34Q93.97 18.34 95.67 19.82Q97.37 21.30 97.37 24.07L97.37 24.07L97.37 35.08L95.69 35.08L95.28 32.08Q94.34 33.62 92.75 34.50Q91.16 35.38 89.03 35.38L89.03 35.38Q86.59 35.38 85.17 34.14Q83.75 32.91 83.75 30.77L83.75 30.77Q83.75 28.04 86.03 26.49Q88.31 24.93 92.02 24.93L92.02 24.93Q93.89 24.93 95.05 25.08L95.05 25.08L95.05 23.96Q95.05 22.24 93.93 21.36Q92.81 20.48 90.86 20.48L90.86 20.48Q88.35 20.48 85.39 21.86L85.39 21.86L84.61 19.92Q87.98 18.34 91.08 18.34ZM89.40 33.24L89.40 33.24Q91.95 33.24 93.46 31.54Q94.98 29.84 95.05 26.99L95.05 26.99Q93.85 26.84 92.36 26.84L92.36 26.84Q89.40 26.84 87.77 27.83Q86.14 28.83 86.14 30.62L86.14 30.62Q86.14 31.86 87.00 32.55Q87.86 33.24 89.40 33.24ZM104.15 14.19L104.15 14.19Q103.40 14.19 102.91 13.70Q102.43 13.22 102.43 12.54L102.43 12.54Q102.43 11.79 102.90 11.31Q103.36 10.82 104.15 10.82L104.15 10.82Q104.94 10.82 105.40 11.31Q105.87 11.79 105.87 12.54L105.87 12.54Q105.87 13.25 105.39 13.72Q104.90 14.19 104.15 14.19ZM102.99 35.08L102.99 18.53L105.27 18.53L105.27 35.08L102.99 35.08ZM112.31 20.55L108.87 20.55L108.87 18.53L112.31 18.53L112.31 13.78Q112.31 11.16 113.68 9.47Q115.04 7.79 117.66 7.79L117.66 7.79Q118.94 7.79 119.93 8.14Q120.92 8.50 121.93 9.25L121.93 9.25L120.88 10.89Q120.14 10.41 119.46 10.16Q118.79 9.92 117.93 9.92L117.93 9.92Q116.35 9.92 115.47 10.89Q114.59 11.87 114.59 13.78L114.59 13.78L114.59 18.53L120.02 18.53L120.02 20.55L114.59 20.55L114.59 35.08L112.31 35.08L112.31 20.55ZM121.45 35.00L127.59 26.36L122.04 18.61L122.04 18.53L124.67 18.53L127.59 22.69Q127.88 23.10 128.22 23.60Q128.56 24.11 128.90 24.71L128.90 24.71Q129.12 24.30 129.46 23.79Q129.79 23.29 130.24 22.65L130.24 22.65L133.20 18.53L135.75 18.53L135.75 18.61L130.21 26.36L136.35 35.00L136.35 35.08L133.72 35.08L130.32 30.25Q129.53 29.20 128.90 28.04L128.90 28.04Q127.96 29.54 127.44 30.29L127.44 30.29L123.99 35.08L121.45 35.08L121.45 35.00ZM142.07 35.45L142.07 35.45Q141.36 35.45 140.84 35.00Q140.31 34.55 140.31 33.73L140.31 33.73Q140.31 32.87 140.82 32.42Q141.32 31.97 142.07 31.97L142.07 31.97Q142.78 31.97 143.31 32.42Q143.83 32.87 143.83 33.73L143.83 33.73Q143.83 34.55 143.31 35.00Q142.78 35.45 142.07 35.45ZM155.59 35.49L155.59 35.49Q153.45 35.49 151.56 34.46Q149.67 33.43 148.51 31.47Q147.35 29.50 147.35 26.77L147.35 26.77Q147.35 24.11 148.51 22.16Q149.67 20.22 151.60 19.19Q153.53 18.16 155.81 18.16L155.81 18.16Q157.57 18.16 159.01 18.72Q160.45 19.28 161.73 20.40L161.73 20.40L160.42 21.98Q159.41 21.08 158.32 20.68Q157.24 20.29 155.81 20.29L155.81 20.29Q154.09 20.29 152.69 21.10Q151.28 21.90 150.48 23.38Q149.67 24.86 149.67 26.77L149.67 26.77Q149.67 28.71 150.48 30.21Q151.28 31.71 152.67 32.53Q154.05 33.36 155.78 33.36L155.78 33.36Q157.39 33.36 158.51 32.87Q159.63 32.38 160.72 31.37L160.72 31.37L161.99 33.02Q160.64 34.29 159.16 34.89Q157.68 35.49 155.59 35.49ZM172.88 35.49L172.88 35.49Q170.41 35.49 168.47 34.39Q166.52 33.28 165.43 31.30Q164.35 29.31 164.35 26.80L164.35 26.80Q164.35 24.30 165.43 22.31Q166.52 20.33 168.47 19.22Q170.41 18.12 172.88 18.12L172.88 18.12Q175.39 18.12 177.34 19.22Q179.29 20.33 180.39 22.31Q181.49 24.30 181.49 26.80L181.49 26.80Q181.49 29.31 180.39 31.30Q179.29 33.28 177.34 34.39Q175.39 35.49 172.88 35.49ZM172.88 33.36L172.88 33.36Q175.65 33.36 177.41 31.52Q179.17 29.69 179.17 26.80L179.17 26.80Q179.17 23.92 177.43 22.09Q175.69 20.25 172.88 20.25L172.88 20.25Q171.09 20.25 169.66 21.10Q168.24 21.94 167.46 23.44Q166.67 24.93 166.67 26.80L166.67 26.80Q166.67 29.69 168.41 31.52Q170.15 33.36 172.88 33.36Z"></path>
              </g>
    </g>
  </svg>